<?xml version="1.0" encoding="UTF-8"?>
<svg width="24" height="24" viewBox="0 0 24 24" xmlns="http://www.w3.org/2000/svg">
  <g fill="#4F46E5">
    <!-- Corpo principal do carro -->
    <path d="M20.5 9.5l-1.7-4.3C18.5 4.5 17.8 4 17 4H7c-.8 0-1.5.5-1.8 1.2L3.5 9.5c-.6.2-1 .8-1 1.5v4c0 .6.4 1 1 1h.5c0 1.1.9 2 2 2s2-.9 2-2h8c0 1.1.9 2 2 2s2-.9 2-2h.5c.6 0 1-.4 1-1v-4c0-.7-.4-1.3-1-1.5zM6 15c-.6 0-1-.4-1-1s.4-1 1-1 1 .4 1 1-.4 1-1 1zm12 0c-.6 0-1-.4-1-1s.4-1 1-1 1 .4 1 1-.4 1-1 1z"/>
    <!-- Detalhes do carro -->
    <path d="M17 6H7l-1.5 3h13L17 6z" opacity="0.3"/>
    <!-- Farol dianteiro -->
    <circle cx="6" cy="14" r="0.5" fill="#fff"/>
    <!-- Farol traseiro -->
    <circle cx="18" cy="14" r="0.5" fill="#fff"/>
    <!-- Reflexo no vidro -->
    <path d="M16.5 7.5l-1-1.5h-7l-1 1.5" fill="none" stroke="#fff" stroke-width="0.5" opacity="0.5"/>
  </g>
</svg> 